<?xml version="1.0" encoding="UTF-8"?>
<svg width="256px" height="256px" viewBox="0 0 256 256" version="1.1" xmlns="http://www.w3.org/2000/svg" xmlns:xlink="http://www.w3.org/1999/xlink">
    <!-- Generator: Sketch 56.3 (81716) - https://sketch.com -->
    <title>Icons/Illustrative/users/user-256x256</title>
    <desc>Created with Sketch.</desc>
    <g id="Icons/Illustrative/users/user-256x256" stroke="none" stroke-width="1" fill="none" fill-rule="evenodd">
        <g id="Icons/Illustrative/Oval" fill="#F2F3F2">
            <circle id="Oval" cx="128" cy="128" r="128"></circle>
        </g>
        <g id="Group" transform="translate(62.000000, 57.000000)" fill="#C4203F" fill-rule="nonzero">
            <path d="M71.1900001,79.0900001 C91.7665325,76.3590979 106.697692,58.1362267 105.329264,37.4244205 C103.960836,16.7126142 86.761963,0.612572729 66.0050001,0.612572729 C45.2480371,0.612572729 28.0491646,16.7126142 26.6807365,37.4244205 C25.3123084,58.1362267 40.2434676,76.3590979 60.82,79.0900001 C28.5481811,81.6338744 2.92251592,107.276505 0.40000002,139.55 C0.294088093,140.858392 0.738993712,142.151625 1.62745881,143.117926 C2.51592391,144.084227 3.76733455,144.635919 5.08000002,144.64 L126.92,144.64 C128.232666,144.635919 129.484076,144.084227 130.372541,143.117926 C131.261006,142.151625 131.705912,140.858392 131.6,139.55 C129.078149,107.279984 103.457918,81.6385482 71.1900001,79.0900001 Z" id="Path"></path>
        </g>
    </g>
</svg>