<?xml version="1.0" encoding="iso-8859-1"?>
<!-- Generator: Adobe Illustrator 19.0.0, SVG Export Plug-In . SVG Version: 6.00 Build 0)  -->
<svg version="1.1" id="Layer_1" xmlns="http://www.w3.org/2000/svg" xmlns:xlink="http://www.w3.org/1999/xlink" x="0px" y="0px"
	 viewBox="0 0 446.691 446.691" style="enable-background:new 0 0 446.691 446.691;" xml:space="preserve">
<g id="XMLID_945_">
	<path id="XMLID_1714_" style="fill:#165C92;" d="M422.992,121.924H137.161v179.863c0,13.088,10.613,23.7,23.7,23.7h146.045
		l97.411,65.586c4.387,2.958,10.236,2.459,14.059-1.185c3.832-3.643,4.608-9.46,1.87-13.986l-30.505-50.415h33.25
		c13.089,0,23.7-10.611,23.7-23.7V145.624C446.692,132.537,436.079,121.924,422.992,121.924z"/>
	<g id="XMLID_1743_">
		<g>
			<path id="XMLID_1713_" style="opacity:0.1;enable-background:new    ;" d="M333.197,97.452c0-13.089-10.611-23.7-23.7-23.7
				H47.367c-13.089,0-23.7,10.611-23.7,23.7v156.163c0,13.089,10.611,23.7,23.7,23.7h33.251l-19.766,32.668l-10.556,17.446
				c-2.444,4.039-2.375,9.246,0.51,12.981c3.71,4.802,10.372,5.766,15.235,2.493l48.893-32.92l48.519-32.668H292.29
				c22.593,0,40.908-18.315,40.908-40.908V97.452H333.197z"/>
		</g>
	</g>
	<path id="XMLID_1715_" style="fill:#5EAC24;" d="M309.531,77.394c0-13.089-10.611-23.7-23.7-23.7H23.7
		c-13.089,0-23.7,10.611-23.7,23.7v156.162c0,13.089,10.611,23.7,23.7,23.7h33.251l-19.766,32.668l-10.738,17.747
		c-2.736,4.522-1.96,10.339,1.868,13.985c3.827,3.646,9.675,4.14,14.059,1.188l48.893-32.92l48.519-32.668H285.83
		c13.089,0,23.7-10.611,23.7-23.7L309.531,77.394L309.531,77.394z"/>
	<g id="XMLID_995_">
		<circle id="XMLID_1744_" style="fill:#47821C;" cx="99.489" cy="160.219" r="17.087"/>
		<circle id="XMLID_997_" style="fill:#47821C;" cx="154.248" cy="160.219" r="17.087"/>
		<circle id="XMLID_998_" style="fill:#47821C;" cx="209.007" cy="160.219" r="17.087"/>
	</g>
</g>
<g>
</g>
<g>
</g>
<g>
</g>
<g>
</g>
<g>
</g>
<g>
</g>
<g>
</g>
<g>
</g>
<g>
</g>
<g>
</g>
<g>
</g>
<g>
</g>
<g>
</g>
<g>
</g>
<g>
</g>
</svg>
