<?xml version="1.0" encoding="utf-8"?>
<!-- Generator: Adobe Illustrator 16.0.0, SVG Export Plug-In . SVG Version: 6.00 Build 0)  -->
<!DOCTYPE svg PUBLIC "-//W3C//DTD SVG 1.0//EN" "http://www.w3.org/TR/2001/REC-SVG-20010904/DTD/svg10.dtd">
<svg version="1.0" id="Capa_1" xmlns="http://www.w3.org/2000/svg" xmlns:xlink="http://www.w3.org/1999/xlink" x="0px" y="0px"
	 width="384px" height="384px" viewBox="0 0 384 384" enable-background="new 0 0 384 384" xml:space="preserve">
<path fill="#2C2E30" d="M195.228,383c86.256,0,156.182-12.068,156.182-26.955c0-14.885-69.926-26.953-156.182-26.953
	S39.047,341.16,39.047,356.045C39.047,370.932,108.972,383,195.228,383z"/>
<path fill="#4C4434" d="M117.336,370.826l19.021-2.414l36.785-120.727l-23.73-0.059L117.336,370.826z"/>
<path fill="#4C4434" d="M280.365,351.203l14.793-3.322l-37.472-99.953l-17.935-0.051L280.365,351.203z"/>
<path fill="#2E7B3C" d="M68.428,19.905L82.92,228.025l252.791,7.244L321.629,67.001L68.428,19.905z"/>
<path fill="#4C4434" d="M50.314,2.6L39.047,20.315l13.284,227.03l14.89-7.244L50.314,2.6z"/>
<path fill="#332D22" d="M120.151,296.053l-8.852,2.412l0.205,21.533l8.852,1.811L120.151,296.053z"/>
<path fill="#3D362A" d="M189.831,279.496v0.143l-9.071,57.967l20.529-0.303l7.705-66.938l-0.457,2.332
	C198.707,272.527,192.935,276.33,189.831,279.496z"/>
<path fill="#3D362A" d="M211.578,247.793l-1.086,9.373L211.578,247.793z"/>
<path opacity="0.35" enable-background="new    " d="M208.972,270.365l1.521-13.199l-1.521,13.211V270.365z"/>
<path fill="#3D362A" d="M194.793,247.807l-4.962,31.748c3.104-3.164,8.887-6.969,18.681-6.787l0.46-2.33l1.521-13.211l1.086-9.373
	L194.793,247.807z"/>
<path opacity="0.35" enable-background="new    " d="M194.793,247.807l-4.962,31.748c3.104-3.164,8.887-6.969,18.681-6.787
	l0.46-2.33l1.521-13.211l1.086-9.373L194.793,247.807z"/>
<path d="M194.793,247.746l-5.831-0.012l-15.012,87.008l6.787,2.875l9.071-57.979l0.023-0.143L194.793,247.746z"/>
<path opacity="0.35" enable-background="new    " d="M142.684,273.445c5.447-3.441,17.137-10.168,25.82-10.531l4.638-15.229h-23.73
	L142.684,273.445z"/>
<path d="M141.428,247.6l-33.292,119.748l9.201,3.479l32.074-123.199L141.428,247.6z"/>
<g opacity="0.55">
	<path opacity="0.55" enable-background="new    " d="M245.395,105.682c11.061,13.15,18.113,28.403,18.982,45.611
		c0.121,13.174-3.043,24.153-9.406,33.137c-6.008,8.63-14.898,14.832-25.071,17.488c-0.504,0.086-1.02,0.055-1.511-0.096
		c-0.485-0.148-0.935-0.41-1.303-0.762c-0.559-0.594-0.896-1.361-0.955-2.176l-0.856-15.277c-0.146-2.311-0.67-4.584-1.559-6.725
		c-0.646-1.581-1.593-3.02-2.79-4.239c5.896,0.276,11.713-1.423,16.532-4.83c4.831-3.406,7.114-10.617,6.932-21.738
		c-0.182-3.141-0.839-6.236-1.954-9.178c-1.096-2.813-2.627-5.436-4.529-7.778c0.575-1.764,0.855-3.612,0.834-5.471
		c-0.016-3.862-0.753-7.687-2.176-11.278c0-0.255-1.208-0.326-3.766-0.229c-2.56,0.096-6.343,1.799-11.522,5.096
		c-4.597-1.876-9.436-3.095-14.372-3.623c-4.711-0.542-9.482-0.355-14.14,0.555c-5.797-4.503-10.011-7.1-12.608-7.764
		c-2.595-0.664-3.875-0.858-3.852-0.604c-0.964,3.614-1.169,7.388-0.604,11.085c0.288,2,0.847,3.951,1.667,5.796
		c-1.664,2.058-2.875,4.445-3.551,7.004c-0.737,2.938-0.966,5.981-0.675,8.997c1.449,11.412,4.831,19.322,10.313,23.766
		c5.064,4.283,11.18,7.139,17.716,8.272c-0.861,0.776-1.525,1.751-1.933,2.837c-0.551,1.468-0.867,3.012-0.941,4.578
		c-2.251,0.88-4.698,1.117-7.077,0.688c-3.127-0.338-6.183-2.693-9.214-7.089c-0.929-1.442-2.038-2.76-3.298-3.924
		c-1.523-1.55-3.521-2.546-5.675-2.827c-2.149-0.145-2.898,0.266-2.259,1.208c0.713,1.048,1.661,1.917,2.767,2.537
		c1.519,1.197,2.814,2.653,3.828,4.3c0.957,1.391,1.808,2.853,2.548,4.371c0.62,1.909,2.29,3.921,5.012,6.038
		c2.721,2.118,7.326,2.966,13.817,2.549l0.977,10.398c0.039,0.365,0.002,0.736-0.112,1.086c-0.114,0.348-0.302,0.67-0.553,0.941
		c-0.506,0.555-1.423,0.666-2.751,0.328c-16.281-7.248-20.193-10.242-29.745-22.826c-8.015-10.534-13.105-22.999-14.756-36.132
		c-1.668-17.655,3.489-32.062,13.089-43.172c9.6-11.11,23.114-14.902,39.767-13.441C221.301,85.489,234.066,92.229,245.395,105.682z
		"/>
</g>
<path opacity="0.1" enable-background="new    " d="M284.205,286.873l-28.573,1.594c2.744,0.629,22.353,5.543,30.94,21.096h0.351
	L284.205,286.873z"/>
<path opacity="0.35" enable-background="new    " d="M130.282,321.084l-5.144,19.77c3.563-3.006,13.175-10.373,23.173-11.689
	l2.936-9.66L130.282,321.084z"/>
<path d="M270.102,325.238l-6.184-14.02l0.724-0.061l-24.876-63.281h-5.797l37.509,101.84l8.901,1.51l-10.218-26.012L270.102,325.238
	z"/>
<path opacity="0.35" enable-background="new    " d="M284.063,318.428l-3.045-8.453l-16.387,1.209l5.518,14.031
	C270.546,324.732,276.2,318.428,284.063,318.428z"/>
<path d="M270.102,325.238l-5.52-14.031l-0.725,0.061L270.102,325.238z"/>
<path opacity="0.35" enable-background="new    " d="M270.102,325.238l-5.52-14.031l-0.725,0.061L270.102,325.238z"/>
<path fill="#645A53" d="M286.923,309.514l-2.718-22.641l-164.054,9.18l0.205,25.756l9.927-0.725l20.965-1.557l112.658-8.309
	l17.112-1.268L286.923,309.514z"/>
<path opacity="0.2" enable-background="new    " d="M335.168,235.246h0.496l-11.86-141.652l11.847,141.594L335.168,235.246z"/>
<path opacity="0.2" enable-background="new    " d="M203.719,231.479l63.472,1.836l0.411-6.205c0.905-4.227,8.15-9.359,8.15-9.359
	l41.06,1.809c0,0,0.168,1.063,0.361,2.693c0.571,4.145,0.758,8.334,0.557,12.512l12.076,0.35l-9.89-111.45
	C311.461,158.697,285.186,212.859,203.719,231.479z"/>
<path opacity="0.2" enable-background="new    " d="M274.811,233.52l0.365,0.016l-0.293-0.016H274.811z"/>
<path fill="#F6AF30" d="M317.173,222.242l-41.421-1.209l41.361,1.279l-41.361,0.496v3.516L315.001,228l-39.249,1.041v2.945
	l39.249,0.52l-27.487,1.424l30.189,0.871C317.918,230.607,317.74,226.402,317.173,222.242L317.173,222.242z"/>
<path fill="#E7E5EA" d="M317.173,222.242c-0.193-1.631-0.361-2.693-0.361-2.693l-41.06-1.811v3.244L317.173,222.242z"/>
<path fill="#B3843C" d="M315.001,232.457l-39.249-0.52v-2.945l39.249-1.039l-39.249-1.678v-3.514l41.361-0.496l-41.361-1.283v-3.244
	c0,0-7.245,5.131-8.15,9.357l-0.411,6.207l7.62,0.217h0.362l12.341,0.35L315.001,232.457z"/>
<path fill="#827A75" d="M330.082,59.418L50.313,2.66l16.907,237.502l279.77,2.416L330.082,59.418z M68.428,19.904l253.201,47.097
	l14.082,168.268h-0.508l-5.422-0.143L82.92,228.049L68.428,19.904z"/>
<path opacity="0.2" enable-background="new    " d="M68.428,19.905l144.129,26.809L68.428,19.905z"/>
<path fill="#332D22" d="M318.224,71.179l3.405-4.178L212.558,46.713L68.428,19.905l0.641,9.334h0.011l246.451,45.249L318.224,71.179
	z"/>
<path opacity="0.2" enable-background="new    " d="M69.08,29.239l0.508,7.186l246.69,46.433l-0.747-8.37L69.08,29.239z"/>
<path opacity="0.2" enable-background="new    " d="M318.224,71.179l-2.692,3.309L318.224,71.179z"/>
<path fill="#4C4434" d="M323.853,93.654l-2.224-26.653l-3.405,4.178l-2.692,3.309l0.747,8.37l3.612,40.792l9.891,111.453
	l5.423,0.143h0.011l0.484,0.014L323.853,93.654z"/>
<path opacity="0.35" enable-background="new    " d="M239.766,247.877l7.246,18.465c1.546-3.355,5.361-7.789,14.697-7.689
	l-4.022-10.725L239.766,247.877z"/>
<path fill="#332D22" d="M346.99,242.518l-279.77-2.416l-14.89,7.244l89.097,0.254l7.984,0.027l23.73,0.059l15.82,0.049l5.831,0.012
	l16.785,0.047l22.378,0.061l5.796,0.023l17.935,0.051l77.625,0.217L346.99,242.518z"/>
<g opacity="0.7">
	<path fill="#F7F7F7" d="M98.905,71.103c2.307-2.435,4.696-3.951,7.166-4.556c2.469-0.602,4.896-0.135,7.281,1.401
		c3.694,2.604,6.313,7.566,7.859,14.887c1.534,7.094,1.708,15.492,0.522,25.196c-2.133,17.738-8.252,31.083-18.358,40.033
		c0.703,14.239,1.244,24.889,1.62,31.953c0.109,2.391-0.181,4.393-0.869,6.007c-0.689,1.613-1.576,2.354-2.659,2.221
		c-1.084-0.133-2.06-1.074-2.928-2.82c-0.869-1.746-1.355-3.759-1.459-6.037c-0.376-7.064-0.918-18.027-1.624-32.887
		c-0.708-14.86-1.374-27.988-2-39.387c-0.628-11.395-1.26-22.34-1.897-32.835c-0.163-2.396,0.086-4.404,0.75-6.021
		c0.662-1.618,1.545-2.414,2.651-2.392C96.698,65.966,98.013,67.711,98.905,71.103z M100.431,90.648
		c0.59,10.601,1.255,23.417,1.997,38.451c6.36-6.917,10.222-16.179,11.584-27.788c0.681-5.801,0.686-10.274,0.017-13.413
		c-0.344-1.74-1.033-3.014-2.068-3.819c-1.464-0.97-3.24-0.991-5.327-0.059c-2.087,0.934-3.982,2.882-5.687,5.841
		C100.804,90.184,100.631,90.447,100.431,90.648z"/>
	<path fill="#F7F7F7" d="M134.993,75.523c2.307-2.435,4.696-3.951,7.166-4.556c2.469-0.602,4.896-0.135,7.281,1.402
		c3.694,2.604,6.313,7.565,7.859,14.887c1.533,7.094,1.707,15.492,0.522,25.196c-2.133,17.738-8.253,31.083-18.359,40.033
		c0.704,14.239,1.244,24.889,1.621,31.954c0.109,2.391-0.181,4.393-0.869,6.007c-0.689,1.613-1.576,2.354-2.659,2.221
		c-1.084-0.133-2.06-1.076-2.929-2.821c-0.869-1.747-1.355-3.759-1.459-6.038c-0.376-7.064-0.917-18.027-1.624-32.887
		c-0.707-14.86-1.373-27.988-2-39.386c-0.627-11.396-1.259-22.341-1.897-32.836c-0.163-2.396,0.087-4.404,0.75-6.021
		c0.662-1.617,1.545-2.414,2.651-2.392C132.786,70.387,134.1,72.132,134.993,75.523z M136.518,95.069
		c0.59,10.6,1.255,23.417,1.997,38.451c6.36-6.917,10.222-16.179,11.584-27.788c0.681-5.801,0.686-10.275,0.017-13.413
		c-0.344-1.74-1.033-3.014-2.068-3.819c-1.463-0.97-3.24-0.991-5.326-0.059c-2.087,0.934-3.983,2.882-5.687,5.841
		C136.892,94.604,136.719,94.868,136.518,95.069z"/>
	<path fill="#F7F7F7" d="M185.19,107.313c-0.487-1.418-0.921-2.885-1.306-4.405c-0.386-1.518-0.703-2.689-0.95-3.513
		c-0.249-0.821-0.546-1.595-0.895-2.317c-2.186-5.248-4.459-6.092-6.82-2.533c-1.234,1.775-2.158,4.293-2.77,7.557
		c-0.613,3.265-0.736,6.617-0.368,10.059c0.398,4.124,1.213,7.848,2.443,11.167c1.229,3.321,2.988,6.988,5.276,11.004
		c0.057,0.121,0.827,1.433,2.309,3.934c1.481,2.503,2.454,4.235,2.92,5.198l2.519,5.063c1.156,2.293,2.113,4.533,2.871,6.719
		c0.757,2.189,1.429,4.505,2.014,6.955c1.73,6.779,2.459,12.952,2.188,18.522c-0.271,5.57-1.434,10.042-3.487,13.413
		c-1.768,2.729-3.944,4.299-6.527,4.719c-2.583,0.418-5.075-0.311-7.475-2.189l-2.529-1.838c-0.767-0.658-1.384-1.215-1.851-1.67
		c-0.468-0.453-1.034-1.06-1.7-1.821c-0.666-0.762-1.137-1.27-1.411-1.531l-1.68-2.244l-1.846-2.434
		c-1.004-1.253-1.703-3.037-2.099-5.351c-0.394-2.312-0.362-4.46,0.1-6.441c0.461-1.981,1.208-3.219,2.235-3.716
		c1.028-0.495,2.048-0.06,3.057,1.309c0.444,0.508,1.056,1.262,1.839,2.263l1.434,2.043c0.222,0.255,0.595,0.667,1.122,1.241
		c0.525,0.574,0.966,1.026,1.323,1.351c0.356,0.328,0.822,0.725,1.396,1.189c0.574,0.469,1.268,0.979,2.081,1.529
		c1.569,0.985,2.981,1.384,4.235,1.198c1.253-0.187,2.224-0.803,2.913-1.851c1.324-2.102,1.28-5.898-0.127-11.394
		c-0.375-1.29-0.789-2.585-1.243-3.888c-0.454-1.3-0.874-2.426-1.259-3.381c-0.386-0.952-0.954-2.154-1.703-3.605l-1.727-3.268
		l-2.218-3.668l-2.147-3.829c-1.828-3.166-3.341-6.068-4.539-8.706c-1.199-2.636-2.454-6.215-3.765-10.735
		c-1.311-4.518-2.237-9.245-2.778-14.18c-0.678-6.762-0.458-13.158,0.66-19.193c1.116-6.032,2.831-10.775,5.146-14.228
		c1.577-2.295,3.324-3.753,5.242-4.367c1.917-0.614,3.969,0.006,6.158,1.858c2.187,1.855,4.221,4.932,6.102,9.238
		c0.533,1.313,1.077,2.85,1.631,4.615c0.554,1.766,1.084,3.587,1.591,5.459l0.847,2.99c0.669,2.008,0.912,4.161,0.729,6.458
		c-0.184,2.299-0.712,3.988-1.582,5.07c-0.871,1.083-1.863,1.245-2.975,0.484C186.68,110.865,185.812,109.427,185.19,107.313z"/>
	<path fill="#F7F7F7" d="M200.486,136.526c3.278,0.401,7.831-0.06,13.66-1.383c1.036-0.324,2.035,0.25,2.997,1.726
		c0.961,1.476,1.587,3.395,1.88,5.749c0.292,2.357,0.165,4.465-0.381,6.321c-0.546,1.86-1.366,2.889-2.461,3.095
		c-6.241,1.501-11.213,2.022-14.913,1.569c-1.11-0.136-2.088-1.075-2.93-2.82c-0.841-1.744-1.318-3.813-1.428-6.204
		c-0.109-2.391,0.183-4.363,0.873-5.921C198.475,137.102,199.376,136.39,200.486,136.526z"/>
	<path fill="#F7F7F7" d="M242.179,87.634c0.54-3.102,1.603-4.614,3.184-4.534c1.105,0.023,2.092,0.88,2.957,2.569
		c0.866,1.693,1.38,3.735,1.543,6.133c1.004,16.199,2.182,37.909,3.533,65.13l7.449-0.956c1.047-0.098,2.027,0.646,2.941,2.228
		c0.913,1.584,1.49,3.552,1.729,5.9c0.238,2.351,0.056,4.396-0.548,6.131c-0.604,1.738-1.453,2.709-2.548,2.914l-8.163,0.868
		c0.5,10.929,0.933,19.812,1.299,26.65c0.109,2.391-0.181,4.393-0.868,6.006c-0.689,1.613-1.576,2.355-2.659,2.223
		c-1.085-0.133-2.061-1.076-2.93-2.822c-0.868-1.746-1.354-3.758-1.459-6.037c-0.355-6.607-0.759-14.867-1.213-24.771
		c-4.327,0.829-8.356,1.807-12.091,2.934c-0.153,0.095-0.282,0.164-0.385,0.208c-0.104,0.045-0.205,0.117-0.306,0.217
		c-0.101,0.102-0.302,0.302-0.604,0.605c-0.254,0.196-0.611,0.435-1.071,0.718c-2.709,1.705-4.998,0.521-6.866-3.558
		c-1.467-3.349-1.949-6.974-1.444-10.875c0.239-1.669,0.688-3.312,1.352-4.929l0.715-1.611l0.357-0.805
		c0.047-0.106,0.097-0.184,0.146-0.236c0.05-0.05,0.073-0.132,0.068-0.247l1.846-7.925
		C234.954,120.485,239.631,99.776,242.179,87.634z M235.094,160.293c3.221-0.85,6.709-1.611,10.464-2.284
		c-0.704-14.237-1.292-25.912-1.761-35.027l-8.44,36.154L235.094,160.293z"/>
	<path fill="#F7F7F7" d="M289.506,141.148c0.428,0.166,0.858,0.389,1.293,0.667c2.441,1.658,4.646,4.165,6.614,7.518
		c1.968,3.356,3.452,7.358,4.453,12.008c1.06,4.773,1.48,9.664,1.264,14.673c-0.218,5.012-1.1,9.574-2.646,13.686
		c-1.31,3.576-2.867,6.583-4.675,9.021c-1.808,2.439-3.762,4.268-5.861,5.48c-2.102,1.215-4.084,2.105-5.951,2.666
		c-1.867,0.566-3.9,0.939-6.101,1.121c-0.704,1.838-1.637,2.742-2.794,2.715c-0.842,0.008-1.642-0.541-2.402-1.652
		c-0.761-1.113-1.339-2.541-1.734-4.289c-0.65-1.549-1.044-3.295-1.187-5.238c-0.135-1.826-0.002-3.508,0.4-5.045
		c-0.67-11.176-1.501-27.609-2.493-49.296c-0.993-21.687-1.798-38.114-2.414-49.285c-0.157-2.283,0.108-4.232,0.797-5.846
		c0.688-1.614,1.586-2.409,2.69-2.388c0.898,0.11,1.744,0.781,2.538,2.009c0.791,1.23,1.335,2.769,1.63,4.615
		c1.646-1.948,3.138-3.237,4.477-3.867c2.211-1.088,4.456-0.869,6.734,0.655c2.283,1.638,4.201,4.194,5.754,7.667
		c1.551,3.475,2.702,7.632,3.449,12.479c0.796,4.741,0.813,9.723,0.054,14.95C292.64,131.513,291.344,136.507,289.506,141.148z
		 M275.783,141.165c5.566-7.015,8.858-14.368,9.875-22.054c0.514-3.673,0.188-6.796-0.981-9.375
		c-1.171-2.577-2.657-3.467-4.46-2.669c-1.133,0.541-3.149,3.01-6.05,7.41l1.228,26.811L275.783,141.165z M279.452,157.576
		l-3.144,3.69c0.517,11.271,1.017,21.07,1.503,29.392c8.002-0.944,13.382-5.154,16.144-12.627c1.403-3.789,1.675-7.606,0.816-11.447
		c-0.865-3.954-2.568-6.709-5.11-8.267C286.896,156.509,283.493,156.261,279.452,157.576z"/>
</g>
</svg>
