<?xml version="1.0" encoding="utf-8"?>
<!-- Generator: Adobe Illustrator 16.0.0, SVG Export Plug-In . SVG Version: 6.00 Build 0)  -->
<!DOCTYPE svg PUBLIC "-//W3C//DTD SVG 1.1//EN" "http://www.w3.org/Graphics/SVG/1.1/DTD/svg11.dtd">
<svg version="1.1" id="Capa_1" xmlns="http://www.w3.org/2000/svg" xmlns:xlink="http://www.w3.org/1999/xlink" x="0px" y="0px"
	 width="384px" height="384px" viewBox="0 0 384 384" enable-background="new 0 0 384 384" xml:space="preserve">
<path fill="#5A5C5E" d="M203.447,381.449c85.918,0,155.565-12.02,155.565-26.846c0-14.828-69.647-26.848-155.565-26.848
	c-85.916,0-155.565,12.02-155.565,26.848C47.882,369.43,117.532,381.449,203.447,381.449z"/>
<path fill="#4C4434" d="M125.864,369.324l18.945-2.404l36.64-120.25l-23.636-0.061L125.864,369.324z"/>
<path fill="#4C4434" d="M288.25,349.779l14.733-3.309L265.66,246.91l-17.862-0.049L288.25,349.779z"/>
<path fill="#2F4377" d="M77.148,19.787l14.435,207.299l251.794,7.219L329.35,66.699L77.148,19.787z"/>
<path fill="#4C4434" d="M59.105,2.55L47.882,20.196l13.231,226.136l14.832-7.217L59.105,2.55z"/>
<path fill="#332D22" d="M128.666,294.846l-8.816,2.404l0.204,21.447l8.816,1.805L128.666,294.846z"/>
<path fill="#3D362A" d="M198.071,278.354v0.145l-9.034,57.736l20.447-0.301l7.675-66.674l-0.454,2.322
	C206.913,271.414,201.162,275.201,198.071,278.354z"/>
<path fill="#3D362A" d="M219.733,246.777l-1.081,9.336L219.733,246.777z"/>
<path opacity="0.35" enable-background="new    " d="M217.138,269.26l1.515-13.146l-1.515,13.158V269.26z"/>
<path fill="#3D362A" d="M203.016,246.791l-4.944,31.621c3.091-3.15,8.853-6.939,18.607-6.76l0.459-2.32l1.515-13.16l1.081-9.334
	L203.016,246.791z"/>
<path opacity="0.35" enable-background="new    " d="M203.016,246.791l-4.944,31.621c3.091-3.15,8.853-6.939,18.607-6.76l0.459-2.32
	l1.515-13.16l1.081-9.334L203.016,246.791z"/>
<path d="M203.016,246.73l-5.81-0.014l-14.952,86.668l6.76,2.863l9.033-57.75l0.024-0.145L203.016,246.73z"/>
<path opacity="0.35" enable-background="new    " d="M151.111,272.326c5.426-3.428,17.069-10.127,25.718-10.488l4.619-15.168
	h-23.636L151.111,272.326z"/>
<path d="M149.86,246.586l-33.162,119.275l9.166,3.463l31.947-122.715L149.86,246.586z"/>
<g opacity="0.55">
	<path opacity="0.55" enable-background="new    " d="M253.416,105.227c11.018,13.098,18.042,28.291,18.909,45.432
		c0.12,13.123-3.032,24.057-9.372,33.006c-5.983,8.596-14.838,14.773-24.971,17.417c-0.503,0.086-1.016,0.055-1.505-0.096
		c-0.484-0.146-0.931-0.406-1.298-0.76c-0.557-0.59-0.894-1.354-0.95-2.164l-0.854-15.217c-0.144-2.303-0.667-4.566-1.552-6.699
		c-0.644-1.574-1.587-3.008-2.778-4.222c5.872,0.275,11.666-1.418,16.466-4.811c4.813-3.393,7.087-10.574,6.905-21.652
		c-0.181-3.129-0.838-6.212-1.948-9.141c-1.092-2.802-2.613-5.415-4.509-7.748c0.573-1.758,0.852-3.598,0.828-5.449
		c-0.014-3.847-0.748-7.656-2.166-11.234c0-0.253-1.202-0.324-3.752-0.228c-2.55,0.095-6.315,1.792-11.477,5.076
		c-4.576-1.869-9.396-3.083-14.314-3.609c-4.693-0.54-9.445-0.353-14.083,0.553c-5.774-4.485-9.973-7.072-12.56-7.734
		c-2.585-0.662-3.86-0.854-3.836-0.601c-0.961,3.599-1.166,7.358-0.602,11.041c0.286,1.993,0.845,3.936,1.661,5.774
		c-1.658,2.049-2.863,4.427-3.537,6.977c-0.734,2.927-0.963,5.958-0.673,8.96c1.443,11.368,4.812,19.246,10.272,23.673
		c5.044,4.267,11.136,7.111,17.645,8.24c-0.856,0.773-1.518,1.744-1.924,2.827c-0.548,1.462-0.863,2.999-0.938,4.559
		c-2.241,0.876-4.68,1.113-7.05,0.686c-3.113-0.337-6.157-2.683-9.177-7.06c-0.927-1.437-2.031-2.75-3.284-3.91
		c-1.518-1.544-3.508-2.535-5.654-2.815c-2.14-0.145-2.887,0.264-2.249,1.203c0.71,1.044,1.654,1.908,2.756,2.526
		c1.512,1.192,2.803,2.643,3.813,4.282c0.952,1.386,1.801,2.843,2.537,4.355c0.617,1.9,2.281,3.906,4.991,6.014
		c2.713,2.109,7.298,2.955,13.764,2.538l0.972,10.356c0.041,0.365,0.004,0.734-0.111,1.082c-0.113,0.35-0.302,0.67-0.55,0.938
		c-0.504,0.555-1.417,0.664-2.741,0.326c-16.214-7.217-20.113-10.2-29.627-22.733c-7.983-10.493-13.054-22.909-14.699-35.99
		c-1.661-17.585,3.476-31.935,13.039-43.002c9.563-11.066,23.023-14.843,39.609-13.388
		C229.419,85.113,242.133,91.826,253.416,105.227z"/>
</g>
<path opacity="0.1" enable-background="new    " d="M292.074,285.703l-28.46,1.588c2.732,0.625,22.266,5.52,30.818,21.012h0.349
	L292.074,285.703z"/>
<path opacity="0.35" enable-background="new    " d="M138.758,319.779l-5.123,19.691c3.549-2.996,13.123-10.332,23.082-11.645
	l2.924-9.623L138.758,319.779z"/>
<path d="M278.025,323.916l-6.159-13.963l0.722-0.061l-24.777-63.031h-5.773l37.36,101.438l8.863,1.504l-10.177-25.91
	L278.025,323.916z"/>
<path opacity="0.35" enable-background="new    " d="M291.931,317.135l-3.03-8.422l-16.323,1.203l5.496,13.977
	C278.469,323.412,284.1,317.135,291.931,317.135z"/>
<path d="M278.025,323.916l-5.496-13.977L271.806,310L278.025,323.916z"/>
<path opacity="0.35" enable-background="new    " d="M278.025,323.916l-5.496-13.977L271.806,310L278.025,323.916z"/>
<path fill="#645A53" d="M294.781,308.256l-2.707-22.553l-163.408,9.143l0.204,25.656l9.888-0.723l20.883-1.553l112.213-8.273
	l17.047-1.264L294.781,308.256z"/>
<path opacity="0.2" enable-background="new    " d="M342.836,234.281h0.493L331.518,93.186l11.799,141.035L342.836,234.281z"/>
<path opacity="0.2" enable-background="new    " d="M211.904,230.527l63.221,1.828l0.409-6.182c0.904-4.209,8.12-9.322,8.12-9.322
	l40.897,1.805c0,0,0.168,1.057,0.361,2.682c0.567,4.129,0.754,8.299,0.554,12.461l12.027,0.35l-9.851-111.012
	C319.224,158.032,293.051,211.98,211.904,230.527z"/>
<path opacity="0.2" enable-background="new    " d="M282.717,232.561l0.361,0.014l-0.289-0.014H282.717z"/>
<path fill="#F6AF30" d="M324.913,221.326l-41.259-1.203l41.197,1.273l-41.197,0.494v3.5l39.093,1.672l-39.093,1.035v2.936
	l39.093,0.518l-27.377,1.418l30.071,0.867C325.654,229.658,325.476,225.471,324.913,221.326L324.913,221.326z"/>
<path fill="#E7E5EA" d="M324.913,221.326c-0.193-1.625-0.361-2.684-0.361-2.684l-40.897-1.805v3.236L324.913,221.326z"/>
<path fill="#B3843C" d="M322.747,231.502l-39.093-0.52v-2.934l39.093-1.033l-39.093-1.674v-3.498l41.197-0.494l-41.197-1.275v-3.236
	c0,0-7.216,5.113-8.12,9.322l-0.409,6.184l7.592,0.217h0.361l12.292,0.348L322.747,231.502z"/>
<path fill="#827A75" d="M337.77,59.145L59.104,2.61l16.84,236.566l278.666,2.406L337.77,59.145z M77.147,19.787L329.35,66.698
	l14.027,167.606h-0.507l-5.4-0.145l-245.887-7.049L77.147,19.787z"/>
<path opacity="0.2" enable-background="new    " d="M77.148,19.787L220.709,46.49L77.148,19.787z"/>
<path fill="#332D22" d="M325.959,70.86l3.391-4.162L220.709,46.49L77.148,19.787l0.638,9.298h0.012l245.478,45.071L325.959,70.86z"
	/>
<path opacity="0.2" enable-background="new    " d="M77.797,29.085l0.506,7.157l245.719,46.251l-0.746-8.336L77.797,29.085z"/>
<path opacity="0.2" enable-background="new    " d="M325.959,70.86l-2.684,3.296L325.959,70.86z"/>
<path fill="#4C4434" d="M331.563,93.246l-2.214-26.547l-3.391,4.162l-2.684,3.296l0.746,8.336l3.598,40.631l9.851,111.013
	l5.402,0.145h0.011l0.48,0.012L331.563,93.246z"/>
<path opacity="0.35" enable-background="new    " d="M247.811,246.861l7.216,18.393c1.539-3.344,5.342-7.758,14.64-7.662
	l-4.006-10.682L247.811,246.861z"/>
<path fill="#332D22" d="M354.61,241.521l-278.665-2.406l-14.832,7.217l88.747,0.254l7.952,0.023l23.636,0.061l15.758,0.047
	l5.81,0.014l16.718,0.047l22.29,0.061l5.774,0.023l17.862,0.049l77.318,0.217L354.61,241.521z"/>
</svg>
